<?xml version="1.0" encoding="UTF-8"?>
<svg id="Capa_1" data-name="Capa 1" xmlns="http://www.w3.org/2000/svg" viewBox="0 0 149.77 62.27">
  <g>
    <path d="m36.97,8.37c-.25-.11-.72-.24-1.33-.37.91.26,1.65.51,1.33.37Z" style="stroke-width: 0px;"/>
    <path d="m20.53,9.32c.8-.41,3.56-1.14,4.65-1.51-1.51,5.48-2.43,12.48-2.11,17.66.2,3.28.2,3.32-.92,3.88-1.72.88-3.48,3.2-3.8,4.96-.52,3.08,1.36,5.28,5,5.84,6.24.92,15.56-5.36,17.24-11.55,1.4-5.12-1.32-8.64-6.6-8.64-.8,0-1.44-.12-1.44-.24s1.23-1.48,2.8-3.04c6.28-6.28,9.6-12.28,7.8-14.04-1.88-1.89-5.9.43-9.44,4.89,0,0,0,0-.01,0-.58-.05-1.35-.12-2-.16.65.08,1.3.17,1.92.27-1.23,1.56-2.39,3.37-3.38,5.36-1.8,3.6-3.6,9.16-3.88,12.28-.16,1.48-.48,2.8-.72,2.96-.52.32-.12-10.16.52-13.68.53-2.92,1.12-5.46,1.65-7.27.94.06,2.52.03,3.02.03.23,0,.54.01.88.04-1.5-.19-2.96-.33-3.82-.34.24-.79.47-1.44.68-1.87,1.36-2.76,1.76-4.44,1.16-4.84-.88-.56-1.12-.44-1.96.92-.92,1.51-1.78,3.75-2.51,6.35-.38.03-1.06.12-2.15.29-.36.06-.76-.08-2.76.92-1.25.62-5.57,4.14-6.68,5.67-.36.5-.64,1.16-.82,1.95.02-.03.04-.07.06-.1,1.84-2.92,4.68-5.52,7.64-7Zm8.82,8.23c1.35-3.56,3.33-7.03,5.44-9.73.31.06.6.11.87.17-.27-.08-.55-.16-.82-.23,1.83-2.34,3.76-4.09,5.44-4.81,1.55-.64,1.88-.48,1.88,1.04,0,2.64-3.84,8.2-9.23,13.32-4.64,4.44-5.12,4.48-3.56.24Zm-2.8,17.68c0-5.48.23-6.48,1.55-6.52l1.04-.04-1-.28c-.91-.28-1-.44-.88-2.28.08-1.08.44-2.4.84-2.96,1.48-2.04,6.77-3.08,9.24-1.8,2.6,1.36,3.08,4.6,1.2,8.52-1.48,3.16-4.28,5.88-7.64,7.52-4.64,2.28-4.36,2.44-4.36-2.16Zm-2.6,4.32c-1.52,0-2.08-.2-3.04-1.16s-1.16-1.52-1.16-3.04c0-2.08.76-3.84,2.08-4.76,1.2-.84,1.48-.8,1.68.23.12.52.48,2.32.8,4.05.36,1.72.8,3.48,1.04,3.88.4.76.28.8-1.4.8Z" style="stroke-width: 0px;"/>
    <path d="m93.91,23.61c2.64-1.28,2.16-3.36-1.28-5.72-1.84-1.28-2.23-2.32-1.2-3.2.64-.52,1.92-.24,2.8.64.52.56.6.52.6-.2,0-.52-.28-.84-.68-.84s-1.08-.08-1.52-.2c-.44-.08-1.16,0-1.59.16-2.48,1.04-2.24,3.04.59,5.08,2.32,1.64,2.96,3.16,1.77,4.04-.96.72-2.52.36-3.48-.8l-.72-.88.12,1c.16,1.45,2.56,1.96,4.6.92Z" style="stroke-width: 0px;"/>
    <path d="m106.03,14.61c0-.4-.05-.68-.09-.64-.08.04-2.2.16-4.72.28-4.55.24-4.6.24-4.72,1.24-.08.88-.04.91.32.27.32-.44.96-.68,2.04-.68h1.6l-.12,4.28c-.12,4.2-.16,4.28-1.12,4.56-.6.16.16.28,2,.28,2.16.04,2.76-.08,2.12-.32-.88-.36-.92-.6-.92-4.64v-4.24l1.8.16c1.52.12,1.8,0,1.8-.56Z" style="stroke-width: 0px;"/>
    <path d="m62.67,22.97c1.2-1.4,1.2-1.92-.05-3.4-.88-1.04-.91-1.24-.4-1.68.8-.64.76-2.16-.04-2.84-.4-.32-2-.55-4.52-.64-2.2-.04-3.41.04-2.84.2.96.32,1,.44,1.12,4.24.12,4.12-.12,4.84-1.64,5.2-.48.09,1,.16,3.28.09,3.96-.09,4.16-.12,5.09-1.16Zm-4.77-8c.45-.44,1.92-.32,2.45.2.84.84.55,2.27-.48,2.8-1.48.64-2.24.16-2.24-1.4,0-.76.12-1.48.28-1.6Zm1.72,8.92c-1.04,0-2-1.64-2-3.4s0-1.8,1.36-1.8c1,0,1.56.28,2,.88.37.48.64,1.32.64,1.8,0,.92-1.27,2.52-2,2.52Z" style="stroke-width: 0px;"/>
    <path d="m72.43,23.41c0-.68-.12-.76-.48-.4-.27.28-1.23.48-2.2.48h-1.72v-4h1.4c.88,0,1.52.23,1.76.68.32.55.4.32.4-1.09s-.08-1.64-.4-1.12c-.24.48-.88.72-1.76.72q-1.4,0-1.4-1.8v-1.8h1.59c1.32,0,1.68.16,2,.88.32.84.36.8.36-.4l.05-1.28-3.88.04c-2.8,0-3.64.12-3,.36.88.36.92.52.8,4.68-.12,4.2-.16,4.28-1.12,4.56-.56.16.92.28,3.32.32,4.16.04,4.28,0,4.28-.84Z" style="stroke-width: 0px;"/>
    <path d="m77.83,24.01c-1.12-.28-1.4-.84-1.4-2.84,0-2.41,1.08-2.28,2.96.32,1.32,1.84,2.72,2.8,3.96,2.8.27,0,.2-.2-.16-.4-.36-.2-1.24-1.28-1.96-2.4l-1.32-2.05.92-.95c.68-.73.84-1.24.64-2-.36-1.45-2.36-2.2-5.72-2.16-1.48,0-2.45.12-2.12.24,1.05.4,1.2,1.04,1.2,5.04,0,3.68-.04,3.92-.88,4.28-.68.24-.16.36,1.88.32,1.56,0,2.44-.12,2-.2Zm-.52-9.32c.48,0,1.2.28,1.6.68.8.72.96,2.52.24,3.24-.28.28-1,.48-1.6.48-1.08,0-1.12-.04-1.12-2.2,0-2,.08-2.2.88-2.2Z" style="stroke-width: 0px;"/>
    <path d="m84.55,23.85c-.56.32-.2.4,1.48.4,1.2,0,1.95-.12,1.72-.24-.36-.12-.52-1.48-.52-4.72,0-4,.08-4.56.72-4.72.36-.12-.4-.2-1.72-.24-1.8,0-2.24.08-1.68.4s.68,1,.68,4.56-.12,4.24-.68,4.56Z" style="stroke-width: 0px;"/>
    <path d="m108.23,24.25c1.56,0,1.8-.08,1.12-.36-.84-.36-.88-.45-.37-1.88.48-1.44.64-1.52,2.28-1.64,1.72-.12,1.8-.04,2.28,1.24.68,1.88.6,2.2-.4,2.4-.52.08.2.2,1.6.24,2.4.04,2.44,0,1.76-.68-.4-.4-1.4-2.64-2.24-5-1.32-3.72-1.64-4.28-2.44-4.28s-1.08.44-1.8,2.48c-.52,1.41-1.28,3.48-1.68,4.6-.45,1.16-1.09,2.28-1.45,2.52-.52.28-.16.36,1.32.36Zm1.96-5.4c.12-.36.36-1.09.48-1.6.31-1.32.8-1.2,1.31.28.64,1.84.56,1.96-.8,1.96-.96,0-1.2-.12-1-.64Z" style="stroke-width: 0px;"/>
    <path d="m118.15,23.85c-.56.32-.16.4,1.68.4s2.24-.08,1.72-.4c-.6-.32-.72-1-.72-4.56s.12-4.24.72-4.56c.52-.32.12-.4-1.72-.4s-2.24.08-1.68.4.68,1,.68,4.56-.12,4.24-.68,4.56Z" style="stroke-width: 0px;"/>
    <path d="m123.35,14.73c.55.32.68,1,.68,4.56s-.12,4.24-.68,4.56c-.56.32-.28.4,1.27.4,1.12,0,1.73-.12,1.41-.24-.32-.12-.73-.44-.88-.68-.44-.64-.4-6.64.04-6.64.2,0,1.92,1.72,3.84,3.8,1.91,2.08,3.64,3.8,3.84,3.8s.36-1.96.36-4.36c0-4.08.08-4.44.88-5,.84-.6.8-.64-1.28-.6-1.72,0-2,.08-1.28.36.8.36.88.64.88,3.48l-.04,3.12-3.28-3.52c-3.08-3.23-3.4-3.48-4.88-3.48-1.28.04-1.48.12-.88.44Z" style="stroke-width: 0px;"/>
    <path d="m147.83,17.13c-1.04,0-1.4.08-1.04.31.44.28.36.6-.44,1.77l-.96,1.4-2.09-1.96c-2.16-2.04-2.59-3.36-1.08-3.36.64,0,.8.24.72,1.32-.04,1.4.48,1.56,1.24.36.64-1.04-.2-2.04-1.8-2.2-.77-.08-1.6.12-1.88.41-.6.59-.64,2-.04,2.59.36.37.16.73-.8,1.52-1.6,1.36-1.69,3-.2,4.16,1.32,1.05,1.52,1.05,3.6,0l1.72-.8.8.8c.92.92,1.09.96,2.24.45q.8-.36,0-.36c-.44-.04-1.12-.52-1.48-1.12-.6-1-.6-1.12.55-2.96.64-1.04,1.48-2,1.84-2.08.36-.12-.04-.2-.92-.23Zm-4.28,5.31c-1.76,1.24-3.52.56-3.52-1.31,0-1.2,1.08-2.48,1.8-2.16.32.08,1,.8,1.6,1.52l1,1.36-.88.59Z" style="stroke-width: 0px;"/>
    <path d="m41.37,10.58c0,.12,1.96,2.66,2.79,3.62,2.04,2.45,3.72,6.2,4.2,9.52,1.52,10.16-5.6,20-15.68,21.64-3.07.51-7.48.52-8.94.6-9.19-12.31-12.19-24.13-10.92-29.54-4.13,6.58-3.75,15.37.94,21.62.56.72.92,1.44.8,1.55-.36.32-3.04-4-3.91-6.32.01.08.02.16.03.23.51,3.12,2.86,7.94,12.85,12.47-.23.02-.34.04-.26.08.11.04.32.06.58.08,0,0,0,0,.01,0,0,0,0,0,0,0,2.51.15,11.37-.66,13.9-1.81,3.44-1.6,7.28-5.16,9-8.45,3.84-7.12,2.8-16.36-2.44-22.16-.88-1-2.92-3.3-2.96-3.14Z" style="stroke-width: 0px;"/>
    <path d="m73.35,30.49c-2.41-1.88-2.96-2.92-1.88-3.68.8-.56,2-.37,3.04.55.6.52.64.52.44-.23-.12-.48-.52-.84-.88-.84s-1-.08-1.45-.2c-.44-.08-1.16,0-1.59.16-2.52,1.04-2.24,2.92.8,5.2,2.4,1.84,2.88,3.24,1.4,4.05-1,.55-2.16.2-3.24-.92l-.84-.88.28,1c.4,1.32.28,1.28,2.52,1.32,2.48.08,3.77-.88,3.6-2.68-.08-.92-.64-1.6-2.2-2.84Z" style="stroke-width: 0px;"/>
    <path d="m84.47,26.29c-1.64-.44-1.72-.44-3.68.08-3.08.8-4.68,4.04-3.4,6.8,1.8,3.76,7.96,3.91,10.23.23,1.68-2.64.09-6.2-3.16-7.12Zm1.36,7.56c-.64,1.32-1.32,1.64-3.24,1.64-2.16,0-3.76-2.09-3.76-4.88,0-2.08,1.32-3.68,3.52-4.28.04-.04.72.2,1.48.52,2.36,1,3.36,4.44,2,7Z" style="stroke-width: 0px;"/>
    <path d="m93.59,35.09c-1.8-1-2.52-4.55-1.36-6.8,1.08-2.12,4.76-2.28,6.28-.28l.72.88v-1.24c0-1.2-.08-1.28-1.84-1.52-2.2-.28-2.41-.28-3.96.2-1.8.52-3.45,2.4-3.68,4.24-.48,3.6,2.6,6.04,6.96,5.44,1.44-.2,1.88-.44,2.4-1.44l.64-1.24-1.28,1.08c-1.4,1.16-3.44,1.45-4.88.68Z" style="stroke-width: 0px;"/>
    <path d="m136.47,26.29c-1.64-.44-1.72-.44-3.68.08-3.08.8-4.68,4.04-3.4,6.8,1.8,3.76,7.96,3.91,10.23.23,1.68-2.64.09-6.2-3.16-7.12Zm1.36,7.56c-.64,1.32-1.32,1.64-3.24,1.64-2.16,0-3.76-2.09-3.76-4.88,0-2.08,1.32-3.68,3.52-4.28.04-.04.72.2,1.48.52,2.36,1,3.36,4.44,2,7Z" style="stroke-width: 0px;"/>
    <path d="m145.27,30.17c-1.48-1.09-2.04-1.77-2.04-2.45,0-1.44,1.4-1.76,2.84-.68q1.16.84,1.16.04c0-.44-.24-.8-.55-.8-.28,0-1.05-.08-1.69-.2-.68-.12-1.63.09-2.23.41-.84.44-1.12.91-1.12,1.76,0,1.12.2,1.36,3.92,4.44,1.04.88,1.12,1.68.24,2.56-.88.92-2.04.8-3.16-.36l-1-.96v.92c0,.8.28,1,1.6,1.2,1.04.16,2.08.04,2.96-.32,2.6-1.08,2.24-3.32-.92-5.55Z" style="stroke-width: 0px;"/>
    <path d="m65.87,30.57c-1.32-3.72-1.64-4.28-2.44-4.28s-1.08.44-1.8,2.48c-.52,1.41-1.27,3.48-1.68,4.6-.44,1.16-1.08,2.28-1.44,2.52-.52.28-.16.36,1.32.36,1.56,0,1.8-.08,1.12-.36-.84-.36-.88-.45-.36-1.88.48-1.44.64-1.52,2.28-1.64,1.72-.12,1.8-.04,2.28,1.24.68,1.88.6,2.2-.4,2.4-.52.08.2.2,1.6.24,2.4.04,2.44,0,1.76-.68-.4-.4-1.4-2.64-2.24-5Zm-3.08.92c-.96,0-1.2-.12-1-.64.12-.36.36-1.09.48-1.6.32-1.32.8-1.2,1.32.28.64,1.84.56,1.96-.8,1.96Z" style="stroke-width: 0px;"/>
    <path d="m104.35,26.73c.52-.32.08-.4-1.73-.4-1.32.04-2.08.12-1.68.24.6.16.68.72.68,4.72s-.08,4.56-.68,4.72c-.4.12.36.2,1.68.24,1.8,0,2.24-.08,1.73-.4-.6-.32-.73-1-.73-4.56s.12-4.24.73-4.56Z" style="stroke-width: 0px;"/>
    <path d="m124.11,26.69c-.72,0-.72.12.36,1.16,1.36,1.36,1.68,4.28.72,6.12-.56,1.04-2.64,2-4.08,1.84l-1.28-.12-.12-4.48-.12-4.48,1.72-.16c.96-.08.12-.16-1.88-.2-2.56,0-3.32.08-2.68.32.88.36.92.52.8,4.68l-.12,4.32-1.08.12c-1.28.16-1.56-.32-3.52-5.84-1.12-3.16-1.44-3.68-2.2-3.68s-1.08.44-1.8,2.48c-.52,1.41-1.28,3.48-1.68,4.6-.44,1.16-1.08,2.28-1.44,2.52-.52.28-.16.36,1.32.36s1.8-.08,1.12-.36c-.84-.36-.88-.45-.36-1.88.48-1.44.64-1.52,2.28-1.64,1.72-.12,1.8-.04,2.28,1.24.68,1.88.59,2.2-.41,2.4-.52.08,1.8.2,5.09.2,5.08.04,6.23-.04,7.64-.68,2.12-.96,2.95-2.2,2.95-4.36,0-1.48-.23-2-1.36-3.12-.76-.76-1.72-1.36-2.16-1.36Zm-14.12,4.8c-.95,0-1.2-.12-1-.64.12-.36.37-1.09.48-1.6.32-1.32.8-1.2,1.32.28.64,1.84.56,1.96-.8,1.96Z" style="stroke-width: 0px;"/>
  </g>
  <text/>
  <text transform="translate(89.19 43.78)" style="font-family: MonotypeCorsiva, &apos;Monotype Corsiva&apos;; font-size: 10px;"><tspan x="0" y="0">Estudio Juridico </tspan></text>
</svg>